<?xml version="1.0" encoding="UTF-8"?>
<svg x="0px" y="0px" viewBox="0 0 10 10" version="1.1" xmlns="http://www.w3.org/2000/svg" xmlns:xlink="http://www.w3.org/1999/xlink" tag="Element2">
	<path d="M3, 2L3, 3L6, 3L6, 4L5, 4C4.4, 4 4, 4.4 4, 5L4, 6L5, 6L5, 5L6, 5C6.6, 5 7, 4.6 7, 4L7, 3C7, 2.4 6.6, 2 6, 2L3, 2z" fill="#707070" class="Mask" tag="Mask"/>
	<rect x="4" y="7" width="1" height="1" rx="0" ry="0" fill="#707070" class="Mask" tag="Mask1"/>
	<path d="M7, 0L3, 0C1.3, 0 0, 1.3 0, 3L0, 7C0, 8.7 1.3, 10 3, 10L7, 10C8.7, 10 10, 8.7 10, 7L10, 3C10, 1.3 8.7, 0 7, 0zM9, 7C9, 8.1 8.1, 9 7, 9L3, 9C1.9, 9 1, 8.1 1, 7L1, 3C1, 1.9 1.9, 1 3, 1L7, 1C8.1, 1 9, 1.9 9, 3L9, 7z" fill="#707070" class="Mask" tag="Mask2"/>
</svg>
