<?xml version="1.0" encoding="UTF-8"?>
<svg x="0px" y="0px" version="1.1" viewBox="0 0 10 60" xmlns="http://www.w3.org/2000/svg" xmlns:xlink="&quot;http://www.w3.org/1999/xlink&quot;">
	<g>
		<g id="Inside_Border" tag="Element">
			<path d="M6, 5L8.8, 2.2C9.1, 1.9 9.1, 1.5 8.8, 1.2C8.5, 0.9 8.1, 0.9 7.8, 1.2L5, 4L2.2, 1.2C1.9, 0.9 1.5, 0.9 1.2, 1.2C0.9, 1.5 0.9, 1.9 1.2, 2.2L4, 5L1.2, 7.8C0.9, 8.1 0.9, 8.5 1.2, 8.8C1.5, 9.1 1.9, 9.1 2.2, 8.8L5, 6L7.8, 8.8C8.1, 9.1 8.5, 9.1 8.8, 8.8C9.1, 8.5 9.1, 8.1 8.8, 7.8L6, 5z" fill="#707070" class="Mask" tag="Mask"/>
		</g>
		<g id="Layer_2" tag="Element1"/>
	</g>
	<g transform="translate(0, 10)">
		<g id="Inside_Border" tag="Element">
			<path d="M4, 7L9, 7L9, 2L4, 2L4, 1L3, 1L3, 4L0, 4L0, 5L3, 5L3, 8L4, 8L4, 7zM4, 3L8, 3L8, 4L4, 4L4, 3z" fill="#707070" class="Mask" tag="Mask"/>
		</g>
		<g id="Layer_2" tag="Element1"/>
	</g>
	<g transform="translate(0, 20)">
		<g id="Inside_Border" tag="Element">
			<path d="M8, 6L8, 1L3, 1L3, 6L2, 6L2, 7L5, 7L5, 10L6, 10L6, 7L9, 7L9, 6L8, 6zM4, 6L4, 2L5, 2L5, 6L4, 6z" fill="#707070" class="Mask" tag="Mask"/>
		</g>
		<g id="Layer_2" tag="Element1"/>
	</g>
	<g transform="translate(0, 30)">
		<g id="Inside_Border" tag="Element">
			<polygon points="5,7 9,3 1,3  " fill="#707070" class="Mask" tag="Mask"/>
		</g>
		<g id="Layer_2" tag="Element1"/>
	</g>
	<g transform="translate(0, 40)">
		<g transform="rotate(90 5 5)">
			<polygon points="5,7 9,3 1,3  " fill="#707070" class="Mask" tag="Mask"/>
		</g>
	</g>
	<g transform="translate(0, 50)">
		<g transform="rotate(-90 5 5)">
			<polygon points="5,7 9,3 1,3  " fill="#707070" class="Mask" tag="Mask"/>
		</g>
	</g>
</svg>
