<?xml version="1.0" encoding="UTF-8"?>
<svg x="0px" y="0px" version="1.1" viewBox="0 0 10 40" xmlns="http://www.w3.org/2000/svg" xmlns:xlink="&quot;http://www.w3.org/1999/xlink&quot;">
	<g>
		<g id="Inside_Border" tag="Element">
			<path d="M6, 5L7.8, 3.2C8.1, 2.9 8.1, 2.5 7.8, 2.2C7.5, 1.9 7.1, 1.9 6.8, 2.2L5, 4L3.2, 2.2C2.9, 1.9 2.5, 1.9 2.2, 2.2C1.9, 2.5 1.9, 2.9 2.2, 3.2L4, 5L2.2, 6.8C1.9, 7.1 1.9, 7.5 2.2, 7.8C2.5, 8.1 2.9, 8.1 3.2, 7.8L5, 6L6.8, 7.8C7.1, 8.1 7.5, 8.1 7.8, 7.8C8.1, 7.5 8.1, 7.1 7.8, 6.8L6, 5z" fill="#707070" class="Mask" tag="st0"/>
		</g>
		<g id="Layer_2" tag="Element1"/>
	</g>
	<g transform="translate(0, 10)">
		<g id="Inside_Border" tag="Element">
			<polygon points="2,5 7,8 7,2  " fill="#707070" class="Mask" tag="Mask"/>
		</g>
		<g id="Layer_2" tag="Element1"/>
	</g>
	<g transform="translate(0, 20)">
		<g id="Inside_Border" tag="Element">
			<polygon points="8,5 3,2 3,8  " fill="#707070" class="Mask" tag="Mask"/>
		</g>
		<g id="Layer_2" tag="Element1"/>
	</g>
	<g transform="translate(0, 30)">
		<g id="Inside_Border" tag="Element">
			<polygon points="5,8 8,3 2,3  " fill="#707070" class="Mask" tag="Mask"/>
		</g>
		<g id="Layer_2" tag="Element1"/>
	</g>
</svg>
