<?xml version="1.0" encoding="UTF-8"?>
<svg x="0px" y="0px" viewBox="0 0 34 34" version="1.1" xmlns="http://www.w3.org/2000/svg" xmlns:xlink="http://www.w3.org/1999/xlink" xml:space="preserve" id="Layer_1" tag="Element0">&#13;&#10;<path d="M17, 0C7.6, 0 0, 7.6 0, 17C0, 26.4 7.6, 34 17, 34C26.4, 34 34, 26.4 34, 17C34, 7.6 26.4, 0 17, 0zM17, 32C8.7, 32 2, 25.3 2, 17C2, 8.7 8.7, 2 17, 2C25.3, 2 32, 8.7 32, 17C32, 25.3 25.3, 32 17, 32z" fill="#707070" class="st0" tag="st00"/>
<polygon points="25,18 25,16 12,16 17,11 14,11 8,17 14,23 17,23 12,18 " fill="#707070" class="st0" tag="st01"/>
</svg>
