<?xml version="1.0" encoding="UTF-8"?>
<svg x="0px" y="0px" version="1.1" viewBox="0 0 10 30" xmlns="http://www.w3.org/2000/svg" xmlns:xlink="http://www.w3.org/1999/xlink">
	<g>
		<polygon points="5,2 0.5,6.5 1.5,7.5 5,4 8.5,7.5 9.5,6.5  " fill="#707070" class="st0"/>
	</g>
	<g transform="translate(0, 10)">
		<polygon points="5,8 0.5,3.5 1.5,2.5 5,6 8.5,2.5 9.5,3.5  " fill="#707070" class="st0"/>
	</g>
	<g transform="translate(0, 20)">
		<path d="M9, 7L10, 7L10, 2L9, 2C9, 2 8, 3 7, 3C5, 3 4, 1 4, 1L3, 1L3, 4L0, 4L0, 5L3, 5L3, 8L4, 8C4, 8 5, 6 7, 6C8, 6 9, 7 9, 7zM4, 2.5C4, 2.5 5, 4 7, 4C8, 4 9, 3.3 9, 3.3L9, 5.7C9, 5.7 8, 5 7, 5C5, 5 4, 6.5 4, 6.5L4, 2.5z" fill="#707070" class="st0"/>
	</g>
</svg>
