<?xml version="1.0" encoding="UTF-8"?>
<svg x="0px" y="0px" viewBox="0 0 12 12" version="1.1" xmlns="http://www.w3.org/2000/svg" xmlns:xlink="http://www.w3.org/1999/xlink">
	<g id="Inside_Border" tag="Element">
		<path d="M2, 0L0, 2L0, 4L4, 0C4, 0 2, 0 2, 0z" fill="#707070" class="Mask" tag="Mask"/>
		<path d="M6, 0L0, 6L0, 8L8, 0C8, 0 6, 0 6, 0z" fill="#707070" class="Mask" tag="Mask1"/>
		<path d="M10, 0L0, 10L0, 12L12, 0C12, 0 10, 0 10, 0z" fill="#707070" class="Mask" tag="Mask2"/>
		<polygon points="12,2 2,12 4,12 12,4  " fill="#707070" class="Mask" tag="Mask3"/>
		<polygon points="12,6 6,12 8,12 12,8  " fill="#707070" class="Mask" tag="Mask4"/>
		<polygon points="12,10 10,12 12,12  " fill="#707070" class="Mask" tag="Mask5"/>
	</g>
</svg>
