<?xml version="1.0" encoding="UTF-8"?>
<svg x="0px" y="0px" viewBox="0 0 10 10" version="1.1" xmlns="http://www.w3.org/2000/svg" xmlns:xlink="http://www.w3.org/1999/xlink" tag="Element2">
	<g id="Inside_Border" tag="Element">
		<path d="M6, 5L7.8, 3.2C8.1, 2.9 8.1, 2.5 7.8, 2.2C7.5, 1.9 7.1, 1.9 6.8, 2.2L5, 4L3.2, 2.2C2.9, 1.9 2.5, 1.9 2.2, 2.2C1.9, 2.5 1.9, 2.9 2.2, 3.2L4, 5L2.2, 6.8C1.9, 7.1 1.9, 7.5 2.2, 7.8C2.5, 8.1 2.9, 8.1 3.2, 7.8L5, 6L6.8, 7.8C7.1, 8.1 7.5, 8.1 7.8, 7.8C8.1, 7.5 8.1, 7.1 7.8, 6.8L6, 5z" fill="#707070" class="st0" tag="st0"/>
	</g>
	<g id="Layer_2" tag="Element1"/>
</svg>
