<?xml version="1.0" encoding="UTF-8"?>
<svg x="0px" y="0px" version="1.1" viewBox="0 0 10 60" xmlns="http://www.w3.org/2000/svg" xmlns:xlink="&quot;http://www.w3.org/1999/xlink&quot;">
	<g>
		<polygon points="5,2 2,5 8,5  " fill="#707070" class="Mask" tag="Mask"/>
		<polygon points="5,6 2,9 8,9  " fill="#707070" class="Mask" tag="Mask1"/>
		<rect x="4.5" y="-2.5" width="1" height="6" rx="0" ry="0" fill="#707070" class="Mask" transform="matrix(0, -1, 1, 0, 4.5, 5.5)" tag="Mask2"/>
	</g>
	<g transform="translate(0, 10)">
		<polygon points="5,1 2,4 8,4  " fill="#707070" class="Mask" tag="Mask"/>
		<polygon points="5,5 2,8 8,8  " fill="#707070" class="Mask" tag="Mask1"/>
	</g>
	<g transform="translate(0, 20)">
		<polygon points="5,3 2,6 8,6  " fill="#707070" class="Mask" tag="Mask"/>
	</g>
	<g transform="translate(0, 30)">
		<polygon points="5,7 8,4 2,4  " fill="#707070" class="Mask" tag="Mask"/>
	</g>
	<g transform="translate(0, 40)">
		<polygon points="5,9 8,6 2,6  " fill="#707070" class="Mask" tag="Mask"/>
		<polygon points="5,5 8,2 2,2  " fill="#707070" class="Mask" tag="Mask1"/>
	</g>
	<g transform="translate(0, 50)">
		<polygon points="5,8 8,5 2,5  " fill="#707070" class="Mask" tag="Mask"/>
		<polygon points="5,4 8,1 2,1  " fill="#707070" class="Mask" tag="Mask1"/>
		<rect x="4.5" y="6.5" width="1" height="6" rx="0" ry="0" fill="#707070" class="Mask" transform="matrix(0, 1, -1, 0, 14.5, 4.5)" tag="Mask2"/>
	</g>
</svg>
