<?xml version="1.0" encoding="UTF-8"?>
<svg x="0px" y="0px" version="1.1" viewBox="0 0 10 160" xmlns="http://www.w3.org/2000/svg" xmlns:xlink="http://www.w3.org/1999/xlink">
	<g>
		<polygon points="2,5 5,8 5,2  " fill="#707070" class="Mask" tag="Mask"/>
		<polygon points="6,5 9,8 9,2  " fill="#707070" class="Mask" tag="Mask1"/>
		<rect x="0" y="2" width="1" height="6" rx="0" ry="0" fill="#707070" class="Mask" transform="matrix(-1, 0, 0, -1, 1, 10)" tag="Mask2"/>
	</g>
	<g transform="translate(0, 10)">
		<polygon points="1,5 4,8 4,2  " fill="#707070" class="Mask" tag="Mask"/>
		<polygon points="5,5 8,8 8,2  " fill="#707070" class="Mask" tag="Mask1"/>
	</g>
	<g transform="translate(0, 20)">
		<polygon points="3,5 6,8 6,2  " fill="#707070" class="Mask" tag="Mask"/>
	</g>
	<g transform="translate(0, 30)">
		<polygon points="7,5 4,2 4,8  " fill="#707070" class="Mask" tag="Mask"/>
	</g>
	<g transform="translate(0, 40)">
		<polygon points="9,5 6,2 6,8  " fill="#707070" class="Mask" tag="Mask"/>
		<polygon points="5,5 2,2 2,8  " fill="#707070" class="Mask" tag="Mask1"/>
	</g>
	<g transform="translate(0, 50)">
		<polygon points="8,5 5,2 5,8  " fill="#707070" class="Mask" tag="Mask"/>
		<polygon points="4,5 1,2 1,8  " fill="#707070" class="Mask" tag="Mask1"/>
		<rect x="9" y="2" width="1" height="6" rx="0" ry="0" fill="#707070" class="Mask" tag="Mask2"/>
	</g>
	<g transform="translate(0, 60)">
		<polygon points="9,4 6,4 6,1 4,1 4,4 1,4 1,6 4,6 4,9 6,9 6,6 9,6  " fill="#707070" class="Mask" tag="Mask"/>
	</g>
	<g transform="translate(0, 70)">
		<polygon points="9,4 6,4 6,1 4,1 4,4 1,4 1,6 4,6 4,9 6,9 6,6 9,6" fill="#707070" class="Mask" tag="Mask"/>
		<polygon points="9,9 7,9 9,7" fill="#707070" class="Mask" tag="Mask"/>
	</g>
	<g transform="translate(0, 80)">
		<rect x="1" y="4" width="8" height="2" rx="0" ry="0" fill="#707070" class="Mask" tag="Mask"/>
	</g>
	<g transform="translate(0, 90)">
		<polygon points="5,3 2,6 8,6  " fill="#707070" class="Mask" tag="Mask"/>
	</g>
	<g transform="translate(0, 100)">
		<polygon points="9,1 10,2 3,9 0,6 1,5 3,7  " fill="#707070" class="Mask" tag="Mask"/>
	</g>
	<g transform="translate(0, 110)">
		<path d="M6, 5L7.8, 3.2C8.1, 2.9 8.1, 2.5 7.8, 2.2C7.5, 1.9 7.1, 1.9 6.8, 2.2L5, 4L3.2, 2.2C2.9, 1.9 2.5, 1.9 2.2, 2.2C1.9, 2.5 1.9, 2.9 2.2, 3.2L4, 5L2.2, 6.8C1.9, 7.1 1.9, 7.5 2.2, 7.8C2.5, 8.1 2.9, 8.1 3.2, 7.8L5, 6L6.8, 7.8C7.1, 8.1 7.5, 8.1 7.8, 7.8C8.1, 7.5 8.1, 7.1 7.8, 6.8L6, 5z" fill="#707070" class="st0" tag="st0"/>
	</g>
	<g transform="translate(0, 120)">
		<path d="M3, 3L7, 3C7, 3 7, 1 7, 1L10, 4L7, 7L7, 5L3, 5C2.4, 5 2, 5.4 2, 6C2, 8 4, 9 4, 9C2.3, 9 0, 7.7 0, 6C0, 4.3 1.3, 3 3, 3z" fill="#707070" class="Mask" tag="Mask"/>
	</g>
	<g transform="translate(0, 130)">
		<path d="M6, 5L7.8, 3.2C8.1, 2.9 8.1, 2.5 7.8, 2.2C7.5, 1.9 7.1, 1.9 6.8, 2.2L5, 4L3.2, 2.2C2.9, 1.9 2.5, 1.9 2.2, 2.2C1.9, 2.5 1.9, 2.9 2.2, 3.2L4, 5L2.2, 6.8C1.9, 7.1 1.9, 7.5 2.2, 7.8C2.5, 8.1 2.9, 8.1 3.2, 7.8L5, 6L6.8, 7.8C7.1, 8.1 7.5, 8.1 7.8, 7.8C8.1, 7.5 8.1, 7.1 7.8, 6.8L6, 5z" fill="#707070" class="st0" tag="st0"/>
		<path transform="rotate(45 5 5)" d="M6, 5L7.8, 3.2C8.1, 2.9 8.1, 2.5 7.8, 2.2C7.5, 1.9 7.1, 1.9 6.8, 2.2L5, 4L3.2, 2.2C2.9, 1.9 2.5, 1.9 2.2, 2.2C1.9, 2.5 1.9, 2.9 2.2, 3.2L4, 5L2.2, 6.8C1.9, 7.1 1.9, 7.5 2.2, 7.8C2.5, 8.1 2.9, 8.1 3.2, 7.8L5, 6L6.8, 7.8C7.1, 8.1 7.5, 8.1 7.8, 7.8C8.1, 7.5 8.1, 7.1 7.8, 6.8L6, 5z" fill="#707070" class="st0" tag="st0"/>
	</g>
	<g transform="translate(0, 140)">
		<path d="M6, 5L7.8, 3.2C8.1, 2.9 8.1, 2.5 7.8, 2.2C7.5, 1.9 7.1, 1.9 6.8, 2.2L5, 4L3.2, 2.2C2.9, 1.9 2.5, 1.9 2.2, 2.2C1.9, 2.5 1.9, 2.9 2.2, 3.2L4, 5L2.2, 6.8C1.9, 7.1 1.9, 7.5 2.2, 7.8C2.5, 8.1 2.9, 8.1 3.2, 7.8L5, 6L6.8, 7.8C7.1, 8.1 7.5, 8.1 7.8, 7.8C8.1, 7.5 8.1, 7.1 7.8, 6.8L6, 5z" fill="#707070" class="st0" tag="st0"/>
		<path transform="rotate(45 5 5)" d="M6, 5L7.8, 3.2C8.1, 2.9 8.1, 2.5 7.8, 2.2C7.5, 1.9 7.1, 1.9 6.8, 2.2L5, 4L3.2, 2.2C2.9, 1.9 2.5, 1.9 2.2, 2.2C1.9, 2.5 1.9, 2.9 2.2, 3.2L4, 5L2.2, 6.8C1.9, 7.1 1.9, 7.5 2.2, 7.8C2.5, 8.1 2.9, 8.1 3.2, 7.8L5, 6L6.8, 7.8C7.1, 8.1 7.5, 8.1 7.8, 7.8C8.1, 7.5 8.1, 7.1 7.8, 6.8L6, 5z" fill="#707070" class="st0" tag="st0"/>
		<polygon points="0,0 0,3 1.5,1.5" fill="#707070" class="Mask" tag="Mask"/>
	</g>
	<g transform="translate(0, 150)">
		<polygon points="10,1 0,1 4,5 4,9 6,9 6,5  " fill="#707070" class="Mask" tag="Mask"/>
	</g>
</svg>
