<?xml version="1.0" encoding="UTF-8"?>
<svg x="0px" y="0px" version="1.1" viewBox="0 0 10 20" xmlns="http://www.w3.org/2000/svg" xmlns:xlink="&quot;http://www.w3.org/1999/xlink&quot;">
	<g>
		<path d="M9, 1L3, 1L3, 3L1, 3L1, 9L7, 9L7, 7L9, 7L9, 1zM6, 8L2, 8L2, 4L6, 4L6, 8zM8, 6L7, 6L7, 3L4, 3L4, 2L8, 2L8, 6z" fill="#707070" class="Mask" tag="Mask"/>
	</g>
	<g transform="translate(0, 10)">
		<path d="M9, 1L3, 1L3, 3L1, 3L1, 9L7, 9L7, 7L9, 7L9, 1zM6, 8L2, 8L2, 4L6, 4L6, 8zM8, 6L7, 6L7, 3L4, 3L4, 2L8, 2L8, 6z" fill="#707070" class="Mask2" tag="Mask"/>
	</g>
</svg>
