<?xml version="1.0" encoding="UTF-8"?>
<svg x="0px" y="0px" version="1.1" viewBox="0 0 10 20" xmlns="http://www.w3.org/2000/svg" xmlns:xlink="&quot;http://www.w3.org/1999/xlink&quot;">
	<g>
		<path d="M3, 4L3, 6C3, 6.6 3.4, 7 4, 7L6, 7C6.6, 7 7, 6.6 7, 6L7, 4C7, 3.4 6.6, 3 6, 3L4, 3C3.4, 3 3, 3.4 3, 4zM6, 6L4, 6L4, 4L6, 4L6, 6z" fill="#707070" class="Mask" tag="Mask"/>
		<polygon points="0,0 0,1 0,3 1,3 1,1 3,1 3,0  " fill="#707070" class="Mask" tag="Mask1"/>
		<polygon points="10,0 9,0 7,0 7,1 9,1 9,3 10,3  " fill="#707070" class="Mask" tag="Mask2"/>
		<polygon points="10,10 10,9 10,7 9,7 9,9 7,9 7,10  " fill="#707070" class="Mask" tag="Mask3"/>
		<polygon points="0,10 1,10 3,10 3,9 1,9 1,7 0,7  " fill="#707070" class="Mask" tag="Mask4"/>
	</g>
	<g transform="translate(0, 10)">
		<path d="M3, 4L3, 6C3, 6.6 3.4, 7 4, 7L6, 7C6.6, 7 7, 6.6 7, 6L7, 4C7, 3.4 6.6, 3 6, 3L4, 3C3.4, 3 3, 3.4 3, 4zM6, 6L4, 6L4, 4L6, 4L6, 6z" fill="#707070" class="Mask2" tag="Mask"/>
		<polygon points="0,0 0,1 0,3 1,3 1,1 3,1 3,0  " fill="#707070" class="Mask2" tag="Mask1"/>
		<polygon points="10,0 9,0 7,0 7,1 9,1 9,3 10,3  " fill="#707070" class="Mask2" tag="Mask2"/>
		<polygon points="10,10 10,9 10,7 9,7 9,9 7,9 7,10  " fill="#707070" class="Mask2" tag="Mask3"/>
		<polygon points="0,10 1,10 3,10 3,9 1,9 1,7 0,7  " fill="#707070" class="Mask2" tag="Mask4"/>
	</g>
</svg>
