<?xml version="1.0" encoding="UTF-8"?>
<svg x="0px" y="0px" viewBox="0 0 10 10" version="1.1" xmlns="http://www.w3.org/2000/svg" xmlns:xlink="http://www.w3.org/1999/xlink" id="Layer_1" tag="Element1">
	<g id="Layer_2" tag="Element"/>
	<polygon points="4,8 4,9 8,9 8,5 7,5 7,8 " fill="none" id="st0" tag="st0"/>
	<g opacity="0.35" class="st1" tag="st1">
		<polygon points="7,4 7,5 8,5 8,9 4,9 4,8 3,8 3,10 9,10 9,4  " fill="#707070" opacity="0.35" id="st2" tag="st2"/>
	</g>
	<path d="M7, 8L7, 5L7, 4L7, 2L1, 2L1, 8L3, 8L4, 8L7, 8zM2, 7L2, 3L6, 3L6, 7L2, 7z" fill="#707070" class="st3" tag="st3"/>
</svg>
