<?xml version="1.0" encoding="UTF-8"?>
<svg x="0px" y="0px" version="1.1" viewBox="0 0 10 100" xmlns="http://www.w3.org/2000/svg" xmlns:xlink="&quot;http://www.w3.org/1999/xlink&quot;">
	<g>
		<g id="Inside_Border" tag="Element">
			<polygon points="5,2 4,2 7.4,5 0,5 0,6 7.4,6 4,9 5,9 9,5.5  " fill="#707070" class="Mask" tag="st0"/>
		</g>
		<g id="Layer_2" tag="Element1"/>
	</g>
	<g transform="translate(0, 10)">
		<g id="Inside_Border" tag="Element">
			<path d="M8.9, 1L8.9, 1C8.3, 0.4 7.4, 0.4 6.9, 1L2, 6L1, 9L4, 8L8.9, 3C9.5, 2.4 9.5, 1.6 8.9, 1zM7, 3L3, 7L3, 6L7, 2L7, 3z" fill="#707070" class="Mask" tag="Mask"/>
		</g>
		<g id="Layer_2" tag="Element1"/>
	</g>
	<g transform="translate(0, 20)">
		<g id="Inside_Border" tag="Element">
			<polygon points="5,0 5.8,3.2 8.5,1.5 6.8,4.2 10,5 6.8,5.8 8.5,8.5 5.8,6.8 5,10 4.2,6.8 1.5,8.5 3.2,5.8 0,5    3.2,4.2 1.5,1.5 4.2,3.2  " fill="#707070" class="Mask" tag="Mask"/>
		</g>
		<g id="Layer_2" tag="Element1"/>
	</g>
	<g transform="translate(0, 30)">
		<g id="Inside_Border" tag="Element">
			<path d="M3, 3L3, 7L7, 7L7, 3L3, 3zM6, 6L4, 6L4, 4L6, 4L6, 6z" fill="#707070" class="Mask" tag="Mask"/>
			<polygon points="1,1 1,4 2,4 2,2 4,2 4,1  " fill="#707070" class="Mask" tag="Mask1"/>
			<polygon points="9,1 6,1 6,2 8,2 8,4 9,4  " fill="#707070" class="Mask" tag="Mask2"/>
			<polygon points="9,9 9,6 8,6 8,8 6,8 6,9  " fill="#707070" class="Mask" tag="Mask3"/>
			<polygon points="1,9 4,9 4,8 2,8 2,6 1,6  " fill="#707070" class="Mask" tag="Mask4"/>
		</g>
		<g id="Layer_2" tag="Element1"/>
	</g>
	<g transform="translate(0, 40)">
		<g id="Inside_Border" tag="Element">
			<polygon points="2.5,1.5 5,4 7.5,1.5 8.5,2.5 6,5 8.5,7.5 7.5,8.5 5,6 2.5,8.5 1.5,7.5 4,5 1.5,2.5  " fill="#707070" class="Mask" tag="Mask"/>
		</g>
		<g id="Layer_2" tag="Element1"/>
	</g>
	<g transform="translate(0, 50)">
		<g id="Inside_Border" tag="Element">
			<path d="M8.9, 1L8.9, 1C8.3, 0.4 7.4, 0.4 6.9, 1L2, 6L1, 9L4, 8L8.9, 3C9.5, 2.4 9.5, 1.6 8.9, 1zM7, 3L3, 7L3, 6L7, 2L7, 3z" fill="#707070" class="Mask" tag="Mask"/>
		</g>
		<g id="Layer_2" tag="Element1"/>
	</g>
	<g transform="translate(0, 60)">
		<g id="Inside_Border" tag="Element">
			<path d="M5, 0C2.2, 0 0, 2.2 0, 5C0, 7.8 2.2, 10 5, 10C7.8, 10 10, 7.8 10, 5C10, 2.2 7.8, 0 5, 0zM7.5, 6.5L6.5, 7.5L5, 6L3.5, 7.5L2.5, 6.5L4, 5L2.5, 3.5L3.5, 2.5L5, 4L6.5, 2.5L7.5, 3.5L6, 5L7.5, 6.5z" fill="#707070" class="Mask" tag="Mask"/>
		</g>
		<g id="Layer_2" tag="Element1"/>
	</g>
	<g transform="translate(0, 70)">
		<g id="Inside_Border" tag="Element">
			<path d="M5, 0C2.2, 0 0, 2.2 0, 5C0, 7.8 2.2, 10 5, 10C7.8, 10 10, 7.8 10, 5C10, 2.2 7.8, 0 5, 0zM7.5, 6.5L6.5, 7.5L5, 6L3.5, 7.5L2.5, 6.5L4, 5L2.5, 3.5L3.5, 2.5L5, 4L6.5, 2.5L7.5, 3.5L6, 5L7.5, 6.5z" fill="#707070" class="Mask" tag="Mask"/>
		</g>
		<g id="Layer_2" tag="Element1"/>
	</g>
	<g transform="translate(0, 80)">
		<g id="Inside_Border" tag="Element">
			<polygon points="10,1 0,1 4,5 4,9 6,9 6,5  " fill="#707070" class="Mask" tag="Mask"/>
		</g>
		<g id="Layer_2" tag="Element1"/>
	</g>
	<g transform="translate(0, 90)">
		<g id="Inside_Border" tag="Element">
			<polygon points="6,2 0,2 3,5 0,8 6,8 5,7 2,7 4,5 2,3 5,3  " fill="#707070" class="Mask" tag="Mask"/>
			<polygon points="10,6 8,9 6,6  " fill="#707070" class="Mask" tag="Mask1"/>
			<polygon points="6,4 8,1 10,4  " fill="#707070" class="Mask" tag="Mask2"/>
		</g>
		<g id="Layer_2" tag="Element1"/>
	</g>
</svg>
