<?xml version="1.0" encoding="UTF-8"?>
<svg x="0px" y="0px" viewBox="0 0 32 32" version="1.1" xmlns="http://www.w3.org/2000/svg" xmlns:xlink="http://www.w3.org/1999/xlink" xml:space="preserve" id="Layer_2" tag="Element2">&#13;&#10;  &#9;&#9;&#9;&#9;&#9;&#9;&#9;&#9;&#9;&#9;&#9;&#9;&#9;&#9;&#9;&#9;&#9;&#9;&#9;&#9;&#9;&#9;<g tag="Element0" xml:space="preserve">    &#9;&#9;&#9;&#9;&#9;&#9;&#9;&#9;&#9;&#9;&#9;&#9;&#9;&#9;&#9;&#9;&#9;&#9;&#9;&#9;&#9;&#9;&#9;&#9;&#9;&#9;&#9;&#9;&#9;&#9;&#9;&#9;&#9;&#9;&#9;&#9;&#9;&#9;&#9;&#9;&#9;&#9;&#9;&#9;<path d="M0, 0L22, 0C27.5, 0 32, 4.5 32, 10L32, 22C32, 27.5 27.5, 32 22, 32L0, 32L0, 0z" fill="#AFAFAF" class="st0" tag="st00"/>
	</g>
<g tag="Element1" xml:space="preserve">    &#9;&#9;&#9;&#9;&#9;&#9;&#9;&#9;&#9;&#9;&#9;&#9;&#9;&#9;&#9;&#9;&#9;&#9;&#9;&#9;&#9;&#9;&#9;&#9;&#9;&#9;&#9;&#9;&#9;&#9;&#9;&#9;&#9;&#9;&#9;&#9;&#9;&#9;&#9;&#9;&#9;&#9;&#9;&#9;<path d="M0, 0L0, 32L22, 32C27.5, 32 32, 27.5 32, 22L32, 10C32, 4.5 27.5, 0 22, 0L0, 0zM22, 31L1, 31L1, 1L22, 1C27, 1 31, 5 31, 10L31, 22C31, 27 27, 31 22, 31z" fill="#707070" class="st1" tag="st10"/>
	</g>
</svg>
