<?xml version="1.0" encoding="UTF-8"?>
<svg x="0px" y="0px" version="1.1" viewBox="0 0 10 80" xmlns="http://www.w3.org/2000/svg" xmlns:xlink="http://www.w3.org/1999/xlink">
	<g>
		<path d="M9, 1L3, 1L3, 3L1, 3L1, 9L7, 9L7, 7L9, 7L9, 1zM6, 8L2, 8L2, 4L6, 4L6, 8zM8, 6L7, 6L7, 3L4, 3L4, 2L8, 2L8, 6z" fill="#707070" class="Mask"/>
	</g>
	<g transform="translate(0, 10)">
		<path d="M1, 1L1, 9L9, 9L9, 1L1, 1zM8, 8L2, 8L2, 2L8, 2L8, 8z" fill="#707070" class="Mask"/>
	</g>
	<g transform="translate(0, 20)">
		<path d="M6, 5L8.8, 2.2C9.1, 1.9 9.1, 1.5 8.8, 1.2C8.5, 0.9 8.1, 0.9 7.8, 1.2L5, 4L2.2, 1.2C1.9, 0.9 1.5, 0.9 1.2, 1.2C0.9, 1.5 0.9, 1.9 1.2, 2.2L4, 5L1.2, 7.8C0.9, 8.1 0.9, 8.5 1.2, 8.8C1.5, 9.1 1.9, 9.1 2.2, 8.8L5, 6L7.8, 8.8C8.1, 9.1 8.5, 9.1 8.8, 8.8C9.1, 8.5 9.1, 8.1 8.8, 7.8L6, 5z" fill="#707070" class="Mask" tag="Mask"/>
	</g>
	<g transform="translate(0, 30)">
		<path d="M7, 2L7, 1L2, 1L2, 2C2, 2 3, 2.5 3, 3.5C3, 5.5 1, 6 1, 6L1, 7L4, 7L4, 10L5, 10L5, 7L8, 7L8, 6C8, 6 6, 5.5 6, 3.5C6, 2.5 7, 2 7, 2zM2.5, 6C2.5, 6 4, 5.5 4, 3.5C4, 2.5 3.3, 2 3.3, 2L5.7, 2C5.7, 2 5, 2.5 5, 3.5C5, 5.5 6.5, 6 6.5, 6L2.5, 6z" fill="#707070" class="Mask"/>
	</g>
	<g transform="translate(0, 40)">
		<path d="M8, 7L9, 7L9, 2L8, 2C8, 2 7.5, 3 6.5, 3C4.5, 3 4, 1 4, 1L3, 1L3, 4L0, 4L0, 5L3, 5L3, 8L4, 8C4, 8 4.5, 6 6.5, 6C7.5, 6 8, 7 8, 7zM4, 2.5C4, 2.5 4.5, 4 6.5, 4C7.5, 4 8, 3.3 8, 3.3L8, 5.7C8, 5.7 7.5, 5 6.5, 5C4.5, 5 4, 6.5 4, 6.5L4, 2.5z" fill="#707070" class="Mask"/>
	</g>
	<g transform="translate(0, 50)">
		<path d="M6, 5L8.8, 2.2C9.1, 1.9 9.1, 1.5 8.8, 1.2C8.5, 0.9 8.1, 0.9 7.8, 1.2L5, 4L2.2, 1.2C1.9, 0.9 1.5, 0.9 1.2, 1.2C0.9, 1.5 0.9, 1.9 1.2, 2.2L4, 5L1.2, 7.8C0.9, 8.1 0.9, 8.5 1.2, 8.8C1.5, 9.1 1.9, 9.1 2.2, 8.8L5, 6L7.8, 8.8C8.1, 9.1 8.5, 9.1 8.8, 8.8C9.1, 8.5 9.1, 8.1 8.8, 7.8L6, 5z" fill="#707070" class="Mask" tag="Mask"/>
	</g>
	<g transform="translate(0, 60)">
		<polygon points="5,7 9,3 1,3  " fill="#707070" class="Mask" tag="Mask"/>
	</g>
	<g transform="translate(0, 70)">
		<rect x="1" y="7" width="8" height="1" rx="0" ry="0" fill="#707070" class="Mask"/>
	</g>
</svg>
