<?xml version="1.0" encoding="UTF-8"?>
<svg x="0px" y="0px" viewBox="0 0 20 14" version="1.1" xmlns="http://www.w3.org/2000/svg" xmlns:xlink="http://www.w3.org/1999/xlink" xml:space="preserve" id="Layer_1" tag="Element1">&#13;&#10;<path d="M13, 14L7, 14C3.1, 14 0, 10.9 0, 7L0, 7C0, 3.1 3.1, 0 7, 0L13, 0C16.9, 0 20, 3.1 20, 7L20, 7C20, 10.9 16.9, 14 13, 14z" fill="#FFFFFF" class="st0" tag="st00"/>
<path d="M13, 0L7, 0C3.1, 0 0, 3.1 0, 7C0, 10.9 3.1, 14 7, 14L13, 14C16.9, 14 20, 10.9 20, 7C20, 3.1 16.9, 0 13, 0zM13, 13L7, 13C3.7, 13 1, 10.3 1, 7C1, 3.7 3.7, 1 7, 1L13, 1C16.3, 1 19, 3.7 19, 7C19, 10.3 16.3, 13 13, 13z" class="st1" tag="Element0"/>
</svg>
