<?xml version="1.0" encoding="UTF-8"?>
<svg x="0px" y="0px" version="1.1" viewBox="0 0 8 40" xmlns="http://www.w3.org/2000/svg" xmlns:xlink="&quot;http://www.w3.org/1999/xlink&quot;">
	<g>
		<polygon points="5,2 5,6 1,6 1,8 7,8 7,2 " fill="#707070" class="st0" tag="st0"/>
	</g>
	<g transform="translate(0, 8)">
		<polygon points="7,6 3,6 3,2 1,2 1,8 7,8 " fill="#707070" class="st0" tag="st0"/>
	</g>
	<g transform="translate(0, 16)">
		<rect x="3" y="2" width="2" height="6" rx="0" ry="0" fill="#707070" class="st0" tag="st0"/>
	</g>
	<g transform="translate(0, 24)">
		<polygon points="5,6 5,2 3,2 3,6 2,6 0,6 0,8 2,8 5,8 8,8 8,6 " fill="#707070" class="st0" tag="st0"/>
	</g>
	<g transform="translate(0, 32)">
		<polygon points="5,6 5,2 3,2 3,6 2,6 0,6 0,8 2,8 5,8 8,8 8,6 " fill="#707070" class="st0" tag="st0"/>
		<rect x="6" y="2" width="2" height="2" rx="0" ry="0" fill="#707070" class="st0" tag="st01"/>
	</g>
</svg>
