<?xml version="1.0" encoding="UTF-8"?>
<svg x="0px" y="0px" version="1.1" viewBox="0 0 10 40" xmlns="http://www.w3.org/2000/svg" xmlns:xlink="&quot;http://www.w3.org/1999/xlink&quot;">
	<g>
		<g id="Inside_Border" tag="Element">
			<rect x="1" y="2" width="8" height="1" rx="0" ry="0" fill="#707070" class="Mask" tag="Mask"/>
			<rect x="1" y="4" width="6" height="1" rx="0" ry="0" fill="#707070" class="Mask" tag="Mask1"/>
			<rect x="1" y="6" width="4" height="1" rx="0" ry="0" fill="#707070" class="Mask" tag="Mask2"/>
			<rect x="1" y="8" width="2" height="1" rx="0" ry="0" fill="#707070" class="Mask" tag="Mask3"/>
		</g>
		<g id="Layer_2" tag="Element1"/>
	</g>
	<g transform="translate(0, 10)">
		<g id="Inside_Border" tag="Element">
			<rect x="1" y="8" width="8" height="1" rx="0" ry="0" fill="#707070" class="Mask" tag="Mask"/>
			<rect x="1" y="6" width="6" height="1" rx="0" ry="0" fill="#707070" class="Mask" tag="Mask1"/>
			<rect x="1" y="4" width="4" height="1" rx="0" ry="0" fill="#707070" class="Mask" tag="Mask2"/>
			<rect x="1" y="2" width="2" height="1" rx="0" ry="0" fill="#707070" class="Mask" tag="Mask3"/>
		</g>
		<g id="Layer_2" tag="Element1"/>
	</g>
	<g transform="translate(0, 20)">
		<g id="Inside_Border" tag="Element">
			<polygon points="6,2 0,2 3,5 0,8 6,8 5,7 2,7 4,5 2,3 5,3  " fill="#707070" class="Mask" tag="Mask"/>
			<rect x="7" y="3" width="3" height="1" rx="0" ry="0" fill="#707070" class="Mask" tag="Mask1"/>
			<rect x="7" y="5" width="2" height="1" rx="0" ry="0" fill="#707070" class="Mask" tag="Mask2"/>
			<rect x="7" y="7" width="1" height="1" rx="0" ry="0" fill="#707070" class="Mask" tag="Mask3"/>
		</g>
		<g id="Layer_2" tag="Element1"/>
	</g>
	<g transform="translate(0, 30)">
		<g id="Inside_Border" tag="Element">
			<polygon points="6,2 0,2 3,5 0,8 6,8 5,7 2,7 4,5 2,3 5,3  " fill="#707070" class="Mask" tag="Mask"/>
			<rect x="7" y="7" width="3" height="1" rx="0" ry="0" fill="#707070" class="Mask" tag="Mask1"/>
			<rect x="7" y="5" width="2" height="1" rx="0" ry="0" fill="#707070" class="Mask" tag="Mask2"/>
			<rect x="7" y="3" width="1" height="1" rx="0" ry="0" fill="#707070" class="Mask" tag="Mask3"/>
		</g>
		<g id="Layer_2" tag="Element1"/>
	</g>
</svg>
